<mxfile host="Electron" agent="Mozilla/5.0 (Windows NT 10.0; Win64; x64) AppleWebKit/537.36 (KHTML, like Gecko) draw.io/24.7.8 Chrome/128.0.6613.36 Electron/32.0.1 Safari/537.36" version="24.7.8">
  <diagram name="Страница — 1" id="1Dds7iUAnEb-OoIm7-CF">
    <mxGraphModel dx="1050" dy="629" grid="1" gridSize="10" guides="1" tooltips="1" connect="1" arrows="1" fold="1" page="1" pageScale="1" pageWidth="4681" pageHeight="3300" math="0" shadow="0">
      <root>
        <mxCell id="0" />
        <mxCell id="1" parent="0" />
        <mxCell id="gEw_uEisPg_sl7L8iPwr-1" value="App" style="rounded=1;whiteSpace=wrap;html=1;fontSize=14;fontFamily=Times New Roman;" vertex="1" parent="1">
          <mxGeometry x="600" y="400" width="120" height="60" as="geometry" />
        </mxCell>
        <mxCell id="gEw_uEisPg_sl7L8iPwr-2" value="Client" style="shape=umlActor;verticalLabelPosition=bottom;verticalAlign=top;html=1;outlineConnect=0;fontSize=14;fontFamily=Times New Roman;" vertex="1" parent="1">
          <mxGeometry x="480" y="400" width="30" height="60" as="geometry" />
        </mxCell>
        <mxCell id="gEw_uEisPg_sl7L8iPwr-3" value="" style="endArrow=open;html=1;rounded=0;endFill=0;fontSize=14;fontFamily=Times New Roman;" edge="1" parent="1">
          <mxGeometry width="50" height="50" relative="1" as="geometry">
            <mxPoint x="520" y="430" as="sourcePoint" />
            <mxPoint x="590" y="430" as="targetPoint" />
          </mxGeometry>
        </mxCell>
        <mxCell id="gEw_uEisPg_sl7L8iPwr-6" value="Access token" style="edgeLabel;html=1;align=center;verticalAlign=middle;resizable=0;points=[];fontSize=14;fontFamily=Times New Roman;" vertex="1" connectable="0" parent="gEw_uEisPg_sl7L8iPwr-3">
          <mxGeometry y="8" relative="1" as="geometry">
            <mxPoint x="-5" y="-6" as="offset" />
          </mxGeometry>
        </mxCell>
        <mxCell id="gEw_uEisPg_sl7L8iPwr-7" value="" style="endArrow=open;html=1;rounded=0;endFill=0;fontSize=14;fontFamily=Times New Roman;" edge="1" parent="1">
          <mxGeometry width="50" height="50" relative="1" as="geometry">
            <mxPoint x="590" y="440" as="sourcePoint" />
            <mxPoint x="520" y="440" as="targetPoint" />
          </mxGeometry>
        </mxCell>
        <mxCell id="gEw_uEisPg_sl7L8iPwr-8" value="Data" style="edgeLabel;html=1;align=center;verticalAlign=middle;resizable=0;points=[];fontSize=14;fontFamily=Times New Roman;" vertex="1" connectable="0" parent="gEw_uEisPg_sl7L8iPwr-7">
          <mxGeometry y="8" relative="1" as="geometry">
            <mxPoint x="-5" y="2" as="offset" />
          </mxGeometry>
        </mxCell>
        <mxCell id="gEw_uEisPg_sl7L8iPwr-9" value="Resource server" style="rounded=1;whiteSpace=wrap;html=1;fontSize=14;fontFamily=Times New Roman;" vertex="1" parent="1">
          <mxGeometry x="600" y="300" width="120" height="60" as="geometry" />
        </mxCell>
        <mxCell id="gEw_uEisPg_sl7L8iPwr-10" value="Keycloak server" style="rounded=1;whiteSpace=wrap;html=1;fontSize=14;fontFamily=Times New Roman;" vertex="1" parent="1">
          <mxGeometry x="600" y="560" width="120" height="60" as="geometry" />
        </mxCell>
        <mxCell id="gEw_uEisPg_sl7L8iPwr-11" value="" style="endArrow=open;html=1;rounded=0;endFill=0;entryX=0.5;entryY=0;entryDx=0;entryDy=0;fontSize=14;fontFamily=Times New Roman;" edge="1" parent="1">
          <mxGeometry width="50" height="50" relative="1" as="geometry">
            <mxPoint x="660" y="365" as="sourcePoint" />
            <mxPoint x="660" y="395" as="targetPoint" />
          </mxGeometry>
        </mxCell>
        <mxCell id="gEw_uEisPg_sl7L8iPwr-12" value="" style="endArrow=open;html=1;rounded=0;endFill=0;fontSize=14;fontFamily=Times New Roman;" edge="1" parent="1">
          <mxGeometry width="50" height="50" relative="1" as="geometry">
            <mxPoint x="655" y="470" as="sourcePoint" />
            <mxPoint x="655" y="550" as="targetPoint" />
          </mxGeometry>
        </mxCell>
        <mxCell id="gEw_uEisPg_sl7L8iPwr-13" value="Access token" style="edgeLabel;html=1;align=center;verticalAlign=middle;resizable=0;points=[];rotation=270;fontSize=14;fontFamily=Times New Roman;" vertex="1" connectable="0" parent="gEw_uEisPg_sl7L8iPwr-12">
          <mxGeometry y="8" relative="1" as="geometry">
            <mxPoint x="-21" y="-3" as="offset" />
          </mxGeometry>
        </mxCell>
        <mxCell id="gEw_uEisPg_sl7L8iPwr-14" value="" style="endArrow=none;html=1;rounded=0;endFill=0;startArrow=open;startFill=0;fontSize=14;fontFamily=Times New Roman;" edge="1" parent="1">
          <mxGeometry width="50" height="50" relative="1" as="geometry">
            <mxPoint x="664" y="470" as="sourcePoint" />
            <mxPoint x="664" y="550" as="targetPoint" />
          </mxGeometry>
        </mxCell>
        <mxCell id="gEw_uEisPg_sl7L8iPwr-15" value="Grants" style="edgeLabel;html=1;align=center;verticalAlign=middle;resizable=0;points=[];rotation=90;fontSize=14;fontFamily=Times New Roman;" vertex="1" connectable="0" parent="gEw_uEisPg_sl7L8iPwr-14">
          <mxGeometry y="8" relative="1" as="geometry">
            <mxPoint x="4" y="-3" as="offset" />
          </mxGeometry>
        </mxCell>
      </root>
    </mxGraphModel>
  </diagram>
</mxfile>
